<svg width="109" height="23" viewBox="0 0 109 23" fill="none" xmlns="http://www.w3.org/2000/svg">
<path d="M0.35 15.25C0.47 18.58 2.18 22.63 9.38 22.63C12.92 22.63 18.17 21.85 18.17 15.91C18.17 11.26 14.96 10.18 10.1 9.31C7.79 8.89 5.42 8.53 5.42 6.34C5.42 3.55 8.9 3.55 9.47 3.55C10.58 3.55 13.52 3.61 13.88 6.55H17.69C17.42 3.34 15.11 0.37 9.56 0.37C7.85 0.37 1.31 0.549999 1.31 6.49C1.31 10.75 4.4 11.77 7.82 12.55C8.63 12.73 9.44 12.91 10.28 13.06C11.63 13.33 14.06 13.78 14.06 16.3C14.06 19.24 11.03 19.45 9.62 19.45C5.21 19.45 4.25 16.84 4.16 15.25H0.35ZM39.6678 5.53L43.3878 22H48.2478L53.9478 0.999999H49.6278L45.5178 17.56L41.8278 0.999999H37.5078L33.8178 17.56L29.7078 0.999999H25.3878L31.0878 22H35.9478L39.6678 5.53ZM62.3879 0.999999V22H69.9779C74.2079 22 80.8679 20.95 80.8679 11.44C80.8679 6.94 79.3379 0.999999 70.7279 0.999999H62.3879ZM66.2279 4.18H70.3979C72.7079 4.18 76.7579 5.02 76.7579 11.5C76.7579 18.52 71.6579 18.82 69.7979 18.82H66.2279V4.18ZM94.6107 7.09L104.691 22H108.771V0.999999H104.931V15.91L94.8507 0.999999H90.7707V22H94.6107V7.09Z" fill="white"/>
</svg>
